# xmcd CD database file
#
# Track frame offsets:
#	150
#	19742
#	36287
#	56932
#	74690
#	90908
#	108705
#	130960
#	148518
#	163985
#	183830
#	202378
#	220795
#	272623
#	293026
#
# Disc length: 4148 seconds
#
# Revision: 3
# Processed by: cddbd v1.5.2PL0 Copyright (c) Steve Scherf et al.
# Submitted via: CDex 1.51
#
DISCID=ef10320f
DTITLE=Lostprophets - Start Something
DYEAR=2004
DGENRE=Rock
TTITLE0=We Still Kill The Old Way
TTITLE1=To Hell We Ride
TTITLE2=Last Train Home
TTITLE3=Make A Move
TTITLE4=Burn Burn
TTITLE5=I Don't Know
TTITLE6=Hello Again
TTITLE7=Goodbye Tonight
TTITLE8=Start Something
TTITLE9=A Million Miles
TTITLE10=Last Summer
TTITLE11=We Are Godzilla, You Are Japan
TTITLE12=Sway....
TTITLE13=Lucky You
TTITLE14=Like A Fire
EXTD=YEAR: 2004
EXTT0=
EXTT1=
EXTT2=
EXTT3=
EXTT4=
EXTT5=
EXTT6=
EXTT7=
EXTT8=
EXTT9=
EXTT10=
EXTT11=
EXTT12=
EXTT13=
EXTT14=
PLAYORDER=
